<svg width="128" height="128" viewBox="0 0 128 128" fill="none" xmlns="http://www.w3.org/2000/svg">
  <defs>
    <linearGradient id="skinovaStroke" x1="18" y1="18" x2="110" y2="110" gradientUnits="userSpaceOnUse">
      <stop stop-color="#19A7E8"/>
      <stop offset="1" stop-color="#5068C7"/>
    </linearGradient>
  </defs>
  <path d="M18 42V18H42" stroke="url(#skinovaStroke)" stroke-width="4.5" stroke-linecap="round" stroke-linejoin="round"/>
  <path d="M86 18H110V42" stroke="url(#skinovaStroke)" stroke-width="4.5" stroke-linecap="round" stroke-linejoin="round"/>
  <path d="M18 86V110H42" stroke="url(#skinovaStroke)" stroke-width="4.5" stroke-linecap="round" stroke-linejoin="round"/>
  <path d="M86 110H110V86" stroke="url(#skinovaStroke)" stroke-width="4.5" stroke-linecap="round" stroke-linejoin="round"/>
  <path d="M64 31C52 31 43 39 43 52V73C43 89 52 101 64 104C76 101 85 89 85 73V52C85 39 76 31 64 31Z" stroke="url(#skinovaStroke)" stroke-width="4.5" stroke-linecap="round" stroke-linejoin="round"/>
  <path d="M51 53C56 47 72 47 77 53" stroke="url(#skinovaStroke)" stroke-width="4" stroke-linecap="round"/>
  <circle cx="57" cy="63" r="2.8" fill="#169FE1"/>
  <circle cx="71" cy="63" r="2.8" fill="#169FE1"/>
  <path d="M64 58V79" stroke="url(#skinovaStroke)" stroke-width="4" stroke-linecap="round"/>
  <path d="M58 83H70" stroke="url(#skinovaStroke)" stroke-width="4" stroke-linecap="round"/>
  <path d="M51 87C54 91 59 93 64 93C69 93 74 91 77 87" stroke="url(#skinovaStroke)" stroke-width="4" stroke-linecap="round"/>
  <path d="M43 52L50 59H78L85 52" stroke="url(#skinovaStroke)" stroke-width="4" stroke-linecap="round" stroke-linejoin="round"/>
  <circle cx="50" cy="59" r="3" fill="#169FE1" fill-opacity="0.9"/>
  <circle cx="64" cy="59" r="3" fill="#169FE1" fill-opacity="0.9"/>
  <circle cx="78" cy="59" r="3" fill="#169FE1" fill-opacity="0.9"/>
</svg>
